<svg width="2363pt" height="100pt" xmlns="http://www.w3.org/2000/svg" xmlns:xlink="http://www.w3.org/1999/xlink" xmlns:ev="http://www.w3.org/2001/xml-events" style="overflow: hidden; "><g id="viewport-20241029104104472" class="svg-pan-zoom_viewport" transform="matrix(0.32526991136508293,0,0,0.32526991136508293,35.42646709462914,370.09736339660003)" style="transform: matrix(0.32527, 0, 0, 0.32527, 35.4265, 370.097);">
<g id="graph0" class="graph" transform="scale(1 1) rotate(0) translate(4 96)">
<title>MapReduceDAG</title>
<polygon fill="white" stroke="none" points="-4,4 -4,-96 2359.2,-96 2359.2,4 -4,4"></polygon>
<!-- jugadores.txt -->
<g id="node1" class="node">
<title>jugadores.txt</title>
<ellipse fill="red" stroke="red" cx="61.19" cy="-72.5" rx="61.19" ry="18"></ellipse>
<text text-anchor="middle" x="61.19" y="-68.3" font-family="Times,serif" font-size="14.00">jugadores.txt</text>
</g>
<!-- Job 1 (Eliminar Jugadores Repetidos y Calcular Tiempo Parcial por Misión) -->
<g id="node4" class="node">
<title>Job 1 (Eliminar Jugadores Repetidos y Calcular Tiempo Parcial por Misión)</title>
<ellipse fill="yellow" stroke="yellow" cx="463.89" cy="-72.5" rx="305.51" ry="18"></ellipse>
<text text-anchor="middle" x="463.89" y="-68.3" font-family="Times,serif" font-size="14.00">Job 1 (Eliminar Jugadores Repetidos y Calcular Tiempo Parcial por Misión)</text>
</g>
<!-- jugadores.txt&#45;&gt;Job 1 (Eliminar Jugadores Repetidos y Calcular Tiempo Parcial por Misión) -->
<g id="edge1" class="edge">
<title>jugadores.txt-&gt;Job 1 (Eliminar Jugadores Repetidos y Calcular Tiempo Parcial por Misión)</title>
<path fill="none" stroke="black" d="M122.61,-72.5C130.14,-72.5 138.19,-72.5 146.66,-72.5"></path>
<polygon fill="black" stroke="black" points="146.52,-76 156.52,-72.5 146.52,-69 146.52,-76"></polygon>
</g>
<!-- outputDir1 -->
<g id="node2" class="node">
<title>outputDir1</title>
<polygon fill="lightgreen" stroke="lightgreen" points="2007.2,-55.5 2007.2,-91.5 2084.64,-91.5 2084.64,-55.5 2007.2,-55.5"></polygon>
<text text-anchor="middle" x="2045.92" y="-69.4" font-family="Times,serif" font-size="14.00">outputDir1</text>
</g>
<!-- outputDir2 -->
<g id="node3" class="node">
<title>outputDir2</title>
<polygon fill="lightgreen" stroke="lightgreen" points="2277.76,-0.5 2277.76,-36.5 2355.2,-36.5 2355.2,-0.5 2277.76,-0.5"></polygon>
<text text-anchor="middle" x="2316.48" y="-14.4" font-family="Times,serif" font-size="14.00">outputDir2</text>
</g>
<!-- Job 2 (Contar Jugadores Únicos por Misión y Calcular Tiempo Total por Misión) -->
<g id="node5" class="node">
<title>Job 2 (Contar Jugadores Únicos por Misión y Calcular Tiempo Total por Misión)</title>
<ellipse fill="yellow" stroke="yellow" cx="1128.63" cy="-72.5" rx="323.23" ry="18"></ellipse>
<text text-anchor="middle" x="1128.63" y="-68.3" font-family="Times,serif" font-size="14.00">Job 2 (Contar Jugadores Únicos por Misión y Calcular Tiempo Total por Misión)</text>
</g>
<!-- Job 1 (Eliminar Jugadores Repetidos y Calcular Tiempo Parcial por Misión)&#45;&gt;Job 2 (Contar Jugadores Únicos por Misión y Calcular Tiempo Total por Misión) -->
<g id="edge2" class="edge">
<title>Job 1 (Eliminar Jugadores Repetidos y Calcular Tiempo Parcial por Misión)-&gt;Job 2 (Contar Jugadores Únicos por Misión y Calcular Tiempo Total por Misión)</title>
<path fill="none" stroke="black" d="M769.59,-72.5C777.62,-72.5 785.67,-72.5 793.73,-72.5"></path>
<polygon fill="black" stroke="black" points="793.6,-76 803.6,-72.5 793.6,-69 793.6,-76"></polygon>
</g>
<!-- Job 3 (Determinar Misión Más Jugada) -->
<g id="node6" class="node">
<title>Job 3 (Determinar Misión Más Jugada)</title>
<ellipse fill="yellow" stroke="yellow" cx="1650.98" cy="-72.5" rx="163.11" ry="18"></ellipse>
<text text-anchor="middle" x="1650.98" y="-68.3" font-family="Times,serif" font-size="14.00">Job 3 (Determinar Misión Más Jugada)</text>
</g>
<!-- Job 2 (Contar Jugadores Únicos por Misión y Calcular Tiempo Total por Misión)&#45;&gt;Job 3 (Determinar Misión Más Jugada) -->
<g id="edge3" class="edge">
<title>Job 2 (Contar Jugadores Únicos por Misión y Calcular Tiempo Total por Misión)-&gt;Job 3 (Determinar Misión Más Jugada)</title>
<path fill="none" stroke="black" d="M1452.14,-72.5C1460.23,-72.5 1468.24,-72.5 1476.12,-72.5"></path>
<polygon fill="black" stroke="black" points="1476.07,-76 1486.07,-72.5 1476.07,-69 1476.07,-76"></polygon>
</g>
<!-- Job 3 (Determinar Misión Más Jugada)&#45;&gt;outputDir1 -->
<g id="edge5" class="edge">
<title>Job 3 (Determinar Misión Más Jugada)-&gt;outputDir1</title>
<path fill="none" stroke="black" d="M1814.35,-72.91C1879.66,-73.08 1950.15,-73.26 1995.76,-73.37"></path>
<polygon fill="black" stroke="black" points="1995.56,-76.87 2005.57,-73.4 1995.58,-69.87 1995.56,-76.87"></polygon>
</g>
<!-- Job 4 (Filtrar Jugadores de Misión Más Jugada) -->
<g id="node7" class="node">
<title>Job 4 (Filtrar Jugadores de Misión Más Jugada)</title>
<ellipse fill="yellow" stroke="yellow" cx="2045.92" cy="-18.5" rx="195.84" ry="18"></ellipse>
<text text-anchor="middle" x="2045.92" y="-14.3" font-family="Times,serif" font-size="14.00">Job 4 (Filtrar Jugadores de Misión Más Jugada)</text>
</g>
<!-- Job 3 (Determinar Misión Más Jugada)&#45;&gt;Job 4 (Filtrar Jugadores de Misión Más Jugada) -->
<g id="edge4" class="edge">
<title>Job 3 (Determinar Misión Más Jugada)-&gt;Job 4 (Filtrar Jugadores de Misión Más Jugada)</title>
<path fill="none" stroke="black" d="M1755.47,-58.28C1806.85,-51.22 1869.24,-42.64 1922.93,-35.26"></path>
<polygon fill="black" stroke="black" points="1923.32,-38.74 1932.75,-33.92 1922.36,-31.81 1923.32,-38.74"></polygon>
</g>
<!-- Job 4 (Filtrar Jugadores de Misión Más Jugada)&#45;&gt;outputDir2 -->
<g id="edge7" class="edge">
<title>Job 4 (Filtrar Jugadores de Misión Más Jugada)-&gt;outputDir2</title>
<path fill="none" stroke="black" d="M2242.1,-18.5C2250.64,-18.5 2258.76,-18.5 2266.28,-18.5"></path>
<polygon fill="black" stroke="black" points="2266.06,-22 2276.06,-18.5 2266.06,-15 2266.06,-22"></polygon>
</g>
<!-- Parámetro N y P -->
<g id="node8" class="node">
<title>Parámetro N y P</title>
<ellipse fill="lightblue" stroke="lightblue" cx="1650.98" cy="-18.5" rx="75.68" ry="18"></ellipse>
<text text-anchor="middle" x="1650.98" y="-14.3" font-family="Times,serif" font-size="14.00">Parámetro N y P</text>
</g>
<!-- Parámetro N y P&#45;&gt;Job 4 (Filtrar Jugadores de Misión Más Jugada) -->
<g id="edge6" class="edge">
<title>Parámetro N y P-&gt;Job 4 (Filtrar Jugadores de Misión Más Jugada)</title>
<path fill="none" stroke="black" d="M1726.81,-18.5C1759.07,-18.5 1798.55,-18.5 1838.57,-18.5"></path>
<polygon fill="black" stroke="black" points="1838.35,-22 1848.35,-18.5 1838.35,-15 1838.35,-22"></polygon>
</g>
</g>
</g></svg>