<svg width="1954pt" height="100pt" xmlns="http://www.w3.org/2000/svg" xmlns:xlink="http://www.w3.org/1999/xlink" xmlns:ev="http://www.w3.org/2001/xml-events" style="overflow: hidden; "><g id="viewport-20241029091832644" class="svg-pan-zoom_viewport" transform="matrix(1.3009304763369158,0,0,1.3009304763369158,-1363.9488433015508,274.3766935812553)" style="transform: matrix(1.30093, 0, 0, 1.30093, -1363.95, 274.377);">
<g id="graph0" class="graph" transform="scale(1 1) rotate(0) translate(4 96)">
<title>MapReduceDAG</title>
<polygon fill="white" stroke="none" points="-4,4 -4,-96 1949.55,-96 1949.55,4 -4,4"></polygon>
<!-- jugadores.txt -->
<g id="node1" class="node">
<title>jugadores.txt</title>
<ellipse fill="red" stroke="red" cx="61.19" cy="-72.5" rx="61.19" ry="18"></ellipse>
<text text-anchor="middle" x="61.19" y="-68.3" font-family="Times,serif" font-size="14.00">jugadores.txt</text>
</g>
<!-- Job 1 (Calcular Tiempo Total por Misión y Eliminar Jugadores Repetidos) -->
<g id="node4" class="node">
<title>Job 1 (Calcular Tiempo Total por Misión y Eliminar Jugadores Repetidos)</title>
<ellipse fill="yellow" stroke="yellow" cx="457.46" cy="-72.5" rx="299.08" ry="18"></ellipse>
<text text-anchor="middle" x="457.46" y="-68.3" font-family="Times,serif" font-size="14.00">Job 1 (Calcular Tiempo Total por Misión y Eliminar Jugadores Repetidos)</text>
</g>
<!-- jugadores.txt&#45;&gt;Job 1 (Calcular Tiempo Total por Misión y Eliminar Jugadores Repetidos) -->
<g id="edge1" class="edge">
<title>jugadores.txt-&gt;Job 1 (Calcular Tiempo Total por Misión y Eliminar Jugadores Repetidos)</title>
<path fill="none" stroke="black" d="M122.5,-72.5C130.07,-72.5 138.18,-72.5 146.71,-72.5"></path>
<polygon fill="black" stroke="black" points="146.64,-76 156.64,-72.5 146.64,-69 146.64,-76"></polygon>
</g>
<!-- output1 -->
<g id="node2" class="node">
<title>output1</title>
<polygon fill="lightgreen" stroke="lightgreen" points="1625.54,-55.5 1625.54,-91.5 1684.32,-91.5 1684.32,-55.5 1625.54,-55.5"></polygon>
<text text-anchor="middle" x="1654.93" y="-69.4" font-family="Times,serif" font-size="14.00">output1</text>
</g>
<!-- output2 -->
<g id="node3" class="node">
<title>output2</title>
<polygon fill="lightgreen" stroke="lightgreen" points="1886.77,-0.5 1886.77,-36.5 1945.55,-36.5 1945.55,-0.5 1886.77,-0.5"></polygon>
<text text-anchor="middle" x="1916.16" y="-14.4" font-family="Times,serif" font-size="14.00">output2</text>
</g>
<!-- Job 2 (Contar Jugadores Únicos por Misión) -->
<g id="node5" class="node">
<title>Job 2 (Contar Jugadores Únicos por Misión)</title>
<ellipse fill="yellow" stroke="yellow" cx="973.09" cy="-72.5" rx="180.55" ry="18"></ellipse>
<text text-anchor="middle" x="973.09" y="-68.3" font-family="Times,serif" font-size="14.00">Job 2 (Contar Jugadores Únicos por Misión)</text>
</g>
<!-- Job 1 (Calcular Tiempo Total por Misión y Eliminar Jugadores Repetidos)&#45;&gt;Job 2 (Contar Jugadores Únicos por Misión) -->
<g id="edge2" class="edge">
<title>Job 1 (Calcular Tiempo Total por Misión y Eliminar Jugadores Repetidos)-&gt;Job 2 (Contar Jugadores Únicos por Misión)</title>
<path fill="none" stroke="black" d="M756.87,-72.5C764.89,-72.5 772.85,-72.5 780.72,-72.5"></path>
<polygon fill="black" stroke="black" points="780.68,-76 790.68,-72.5 780.68,-69 780.68,-76"></polygon>
</g>
<!-- Job 3 (Misión Más Jugada) -->
<g id="node6" class="node">
<title>Job 3 (Misión Más Jugada)</title>
<ellipse fill="yellow" stroke="yellow" cx="1306.37" cy="-72.5" rx="116.73" ry="18"></ellipse>
<text text-anchor="middle" x="1306.37" y="-68.3" font-family="Times,serif" font-size="14.00">Job 3 (Misión Más Jugada)</text>
</g>
<!-- Job 2 (Contar Jugadores Únicos por Misión)&#45;&gt;Job 3 (Misión Más Jugada) -->
<g id="edge3" class="edge">
<title>Job 2 (Contar Jugadores Únicos por Misión)-&gt;Job 3 (Misión Más Jugada)</title>
<path fill="none" stroke="black" d="M1153.79,-72.5C1161.86,-72.5 1169.89,-72.5 1177.79,-72.5"></path>
<polygon fill="black" stroke="black" points="1177.77,-76 1187.77,-72.5 1177.77,-69 1177.77,-76"></polygon>
</g>
<!-- Job 3 (Misión Más Jugada)&#45;&gt;output1 -->
<g id="edge4" class="edge">
<title>Job 3 (Misión Más Jugada)-&gt;output1</title>
<path fill="none" stroke="black" d="M1423.25,-72.83C1489.14,-73.02 1567.51,-73.25 1613.86,-73.38"></path>
<polygon fill="black" stroke="black" points="1613.68,-76.88 1623.69,-73.41 1613.7,-69.88 1613.68,-76.88"></polygon>
</g>
<!-- Job 4 (Filtrar Jugadores de Misión Más Jugada) -->
<g id="node7" class="node">
<title>Job 4 (Filtrar Jugadores de Misión Más Jugada)</title>
<ellipse fill="yellow" stroke="yellow" cx="1654.93" cy="-18.5" rx="195.84" ry="18"></ellipse>
<text text-anchor="middle" x="1654.93" y="-14.3" font-family="Times,serif" font-size="14.00">Job 4 (Filtrar Jugadores de Misión Más Jugada)</text>
</g>
<!-- Job 3 (Misión Más Jugada)&#45;&gt;Job 4 (Filtrar Jugadores de Misión Más Jugada) -->
<g id="edge5" class="edge">
<title>Job 3 (Misión Más Jugada)-&gt;Job 4 (Filtrar Jugadores de Misión Más Jugada)</title>
<path fill="none" stroke="black" d="M1382.51,-58.54C1406.91,-54.16 1434.12,-49.45 1459.09,-45.5 1481.63,-41.93 1505.67,-38.39 1528.91,-35.1"></path>
<polygon fill="black" stroke="black" points="1529.32,-38.58 1538.74,-33.72 1528.35,-31.65 1529.32,-38.58"></polygon>
</g>
<!-- Job 4 (Filtrar Jugadores de Misión Más Jugada)&#45;&gt;output2 -->
<g id="edge7" class="edge">
<title>Job 4 (Filtrar Jugadores de Misión Más Jugada)-&gt;output2</title>
<path fill="none" stroke="black" d="M1851.08,-18.5C1859.76,-18.5 1867.9,-18.5 1875.28,-18.5"></path>
<polygon fill="black" stroke="black" points="1875.06,-22 1885.06,-18.5 1875.06,-15 1875.06,-22"></polygon>
</g>
<!-- Parámetro N y P -->
<g id="node8" class="node">
<title>Parámetro N y P</title>
<ellipse fill="lightblue" stroke="lightblue" cx="1306.37" cy="-18.5" rx="75.68" ry="18"></ellipse>
<text text-anchor="middle" x="1306.37" y="-14.3" font-family="Times,serif" font-size="14.00">Parámetro N y P</text>
</g>
<!-- Parámetro N y P&#45;&gt;Job 4 (Filtrar Jugadores de Misión Más Jugada) -->
<g id="edge6" class="edge">
<title>Parámetro N y P-&gt;Job 4 (Filtrar Jugadores de Misión Más Jugada)</title>
<path fill="none" stroke="black" d="M1382.14,-18.5C1401.89,-18.5 1424.2,-18.5 1447.33,-18.5"></path>
<polygon fill="black" stroke="black" points="1447.23,-22 1457.23,-18.5 1447.23,-15 1447.23,-22"></polygon>
</g>
</g>
</g></svg>